# xmcd
#
# Track frame offsets:
#	150
#	4170
#	16779
#	32116
#	45926
#	65412
#	82131
#	84835
#	100956
#	115275
#	133912
#	148234
#	164363
#	181371
#	202190
#	213081
#	229584
#	245699
#	263795
#	277057
#	292551
#	311283
#
# Disc length: 4424 seconds
#
# Revision: 0
# Processed by: cddbd v1.5.2PL0 Copyright (c) Steve Scherf et al.
# Submitted via: dBpowerAMP V4.0
#
DISCID=33114616
DTITLE=Die Vamummtn - Rap is (k)a Ponyhof
DYEAR=1900
DGENRE=Hip-Hop
TTITLE0=Intro
TTITLE1=Des is da shit
TTITLE2=Herst Oida feat. Emiliano
TTITLE3=Ondre Umständ
TTITLE4=Unsterblich feat. R.A. The Rugged Man
TTITLE5=Nintendo
TTITLE6=Taxi Skit
TTITLE7=Heit am Feian (Schwab's Weg)
TTITLE8=Slang hern
TTITLE9=Es is haas
TTITLE10=A bissl wos feat. Obi Gspritzt
TTITLE11=Nix und Niemand
TTITLE12=Free Hip Hop Pt. 2
TTITLE13=Da Ofen is aus feat. Warwolves
TTITLE14=Zöön Skit
TTITLE15=64 Bars feat. SOS
TTITLE16=Du, da Jimmy
TTITLE17=Nua Music feat. Foreign Beggars
TTITLE18=Mei Schwonz Reloaded
TTITLE19=Slangsta feat. MOZ
TTITLE20=Gemma Gemma
TTITLE21=Festl Gestan 2011
EXTD=
EXTT0=
EXTT1=
EXTT2=
EXTT3=
EXTT4=
EXTT5=
EXTT6=
EXTT7=
EXTT8=
EXTT9=
EXTT10=
EXTT11=
EXTT12=
EXTT13=
EXTT14=
EXTT15=
EXTT16=
EXTT17=
EXTT18=
EXTT19=
EXTT20=
EXTT21=
PLAYORDER=
